<svg width="177" height="125" viewBox="0 0 177 125" fill="none" xmlns="http://www.w3.org/2000/svg">
<g clip-path="url(#clip0)">
<path d="M93 125C118.957 125 140 103.957 140 78C140 52.0426 118.957 31 93 31C67.0426 31 46 52.0426 46 78C46 103.957 67.0426 125 93 125Z" fill="#F0C419"/>
<path fill-rule="evenodd" clip-rule="evenodd" d="M53.1619 51.3626L92.9991 77.9994L66.3877 38.1377L53.1619 51.3626ZM132.85 51.3804L119.629 38.1499L93 77.9994L46.0047 68.636L46 87.343L93 77.9994L53.1496 104.619L66.3707 117.85L93 78.0003L83.6395 125.01L102.341 125.013L93 78.0003L119.611 117.862L132.838 104.636L93 77.9994L132.85 51.3804ZM140 68.6567L93 77.9994L139.996 87.3636L140 68.6567ZM83.6592 30.9862L93 77.9984L102.361 30.99L83.6592 30.9862Z" fill="#FFF68D"/>
<path fill-rule="evenodd" clip-rule="evenodd" d="M102.4 118.42H83.5997C83.5997 111.299 80.3219 101.909 76.0891 98.3754C73.1368 95.8905 70.7645 92.7892 69.139 89.2894C67.5134 85.7897 66.674 81.9764 66.6797 78.1175C66.6797 63.5165 78.4636 51.68 92.9997 51.68C107.536 51.68 119.32 63.5165 119.32 78.1175C119.32 86.2645 115.413 93.2797 109.882 98.3989C105.399 102.882 102.4 111.338 102.4 118.42Z" fill="#FCF062" stroke="#F29C1F" stroke-miterlimit="10"/>
<path fill-rule="evenodd" clip-rule="evenodd" d="M95.8199 120.3C95.5706 120.3 95.3315 120.201 95.1552 120.025C94.9789 119.848 94.8799 119.609 94.8799 119.36V88.3401H91.1199V119.36C91.1199 119.609 91.0209 119.848 90.8446 120.025C90.6683 120.201 90.4292 120.3 90.1799 120.3H88.2999C88.0506 120.3 87.8115 120.201 87.6352 120.025C87.4589 119.848 87.3599 119.609 87.3599 119.36V88.3401H85.0099C81.6409 88.3401 78.8999 85.599 78.8999 82.2301C78.8999 78.8611 81.6409 76.1201 85.0099 76.1201C86.4994 76.1125 87.9397 76.6527 89.0569 77.6378C90.1741 78.6229 90.8902 79.9843 91.0691 81.463C91.1028 81.5585 91.1199 81.6589 91.1199 81.7601V84.5801H94.8799V81.7601C94.8799 81.652 94.8987 81.5476 94.9325 81.4508C95.1142 79.9746 95.8313 78.6164 96.9478 77.6339C98.0643 76.6513 99.5026 76.1126 100.99 76.1201C104.359 76.1201 107.1 78.8611 107.1 82.2301C107.1 85.599 104.359 88.3401 100.99 88.3401H98.6399V119.36C98.6399 119.609 98.5409 119.848 98.3646 120.025C98.1883 120.201 97.9492 120.3 97.6999 120.3H95.8199ZM100.99 84.5801C102.286 84.5801 103.34 83.5263 103.34 82.2301C103.34 80.9338 102.286 79.8791 100.99 79.8791C100.427 79.8834 99.8849 80.089 99.4609 80.4587C99.0369 80.8284 98.7593 81.3378 98.6784 81.8945L98.6399 82.0571V84.5801H100.99ZM85.0099 79.8791C83.7146 79.8791 82.6599 80.9338 82.6599 82.2301C82.6599 83.5263 83.7146 84.5801 85.0099 84.5801H87.3599V82.0496L87.3223 81.8945C87.2412 81.3377 86.9635 80.8283 86.5393 80.4586C86.1151 80.0889 85.5726 79.8834 85.0099 79.8791Z" fill="#F29C1F"/>
<path fill-rule="evenodd" clip-rule="evenodd" d="M81.7202 116.54H104.28V125H81.7202V116.54ZM87.3602 91.16H91.1202V88.34H87.3602V91.16ZM94.8802 88.34V91.16H98.6402V88.34H94.8802Z" fill="#E57E25"/>
</g>
<circle cx="9" cy="61" r="9" fill="#F0C419"/>
<circle cx="168" cy="115" r="8" fill="#FFF68D"/>
<circle cx="159.5" cy="17.5" r="17.5" fill="#F6BB39"/>
<defs>
<clipPath id="clip0">
<rect width="94" height="94" fill="white" transform="translate(46 31)"/>
</clipPath>
</defs>
</svg>
